<?xml version="1.0" encoding="utf-8"?>
<svg xmlSpace="preserve" viewBox="0 0 100 100" y="0px" x="0px" xmlnsXlink="http://www.w3.org/1999/xlink" xmlns="http://www.w3.org/2000/svg" id="Layer_1" version="1.1" style="height: 100%; width: 100%; background: none; shape-rendering: auto; animation-play-state: running; animation-delay: 0s;" width="200px" height="200px"><g class="ldl-scale" style="transform-origin: 50% 50%; transform: rotate(0deg) scale(0.8, 0.8); animation-play-state: running; animation-delay: 0s;"><g class="ldl-ani" style="animation-play-state: running; animation-delay: 0s;"><g class="ldl-layer" style="animation-play-state: running; animation-delay: 0s;"><g class="ldl-ani" style="transform-origin: 50px 50px; opacity: 1; animation: 3.7037s linear -2.4s infinite normal forwards running fade-001308ec-7634-4ac0-9652-e7f5a0e829a0;"><path d="M59,22.99C59,31.97,50,40,50,40s-9-8.03-9-17.01c0-6.53,2.13-11.4,5.21-13.99C46.14,9,50,12.78,50,12.78S53.86,9,53.79,9 C56.87,11.58,59,16.46,59,22.99z" stroke-miterlimit="10" stroke-linejoin="round" stroke-linecap="round" stroke-width="3.5" stroke="#333435" fill="#F8AFB4" style="fill: rgb(243, 177, 188); stroke: rgb(51, 52, 53); animation-play-state: running; animation-delay: 0s;"></path></g></g><g class="ldl-layer" style="animation-play-state: running; animation-delay: 0s;"><g class="ldl-ani" style="transform-origin: 50px 50px; opacity: 1; animation: 3.7037s linear -2.72593s infinite normal forwards running fade-001308ec-7634-4ac0-9652-e7f5a0e829a0;"><path d="M27.22,32.27c8.54,2.77,13.4,13.82,13.4,13.82s-10.42,6.08-18.96,3.3c-6.21-2.02-10.19-5.55-11.7-9.27 c-0.02,0.06,4.77-2.44,4.77-2.44s-2.4-4.84-2.42-4.78C15.72,30.78,21.01,30.25,27.22,32.27z" stroke-miterlimit="10" stroke-linejoin="round" stroke-linecap="round" stroke-width="3.5" stroke="#333435" fill="#F8AFB4" style="fill: rgb(243, 177, 188); stroke: rgb(51, 52, 53); animation-play-state: running; animation-delay: 0s;"></path></g></g><g class="ldl-layer" style="animation-play-state: running; animation-delay: 0s;"><g class="ldl-ani" style="transform-origin: 50px 50px; opacity: 1; animation: 3.7037s linear -3.05185s infinite normal forwards running fade-001308ec-7634-4ac0-9652-e7f5a0e829a0;"><path d="M26.23,65.37c5.28-7.26,17.28-8.47,17.28-8.47s2.56,11.79-2.72,19.05c-3.84,5.28-8.43,7.97-12.43,8.26 c0.05,0.04-0.85-5.29-0.85-5.29s-5.34,0.79-5.29,0.83C21.25,75.84,22.39,70.65,26.23,65.37z" stroke-miterlimit="10" stroke-linejoin="round" stroke-linecap="round" stroke-width="3.5" stroke="#333435" fill="#F8AFB4" style="fill: rgb(243, 177, 188); stroke: rgb(51, 52, 53); animation-play-state: running; animation-delay: 0s;"></path></g></g><g class="ldl-layer" style="animation-play-state: running; animation-delay: 0s;"><g class="ldl-ani" style="transform-origin: 50px 50px; opacity: 1; animation: 3.7037s linear -3.37778s infinite normal forwards running fade-001308ec-7634-4ac0-9652-e7f5a0e829a0;"><path d="M57.4,76.53c-5.28-7.26-2.72-19.05-2.72-19.05s12,1.21,17.28,8.47c3.84,5.28,4.98,10.48,4.01,14.38c0.05-0.04-5.29-0.83-5.29-0.83 s-0.9,5.33-0.85,5.29C65.83,84.51,61.24,81.82,57.4,76.53z" stroke-miterlimit="10" stroke-linejoin="round" stroke-linecap="round" stroke-width="3.5" stroke="#333435" fill="#F8AFB4" style="fill: rgb(243, 177, 188); stroke: rgb(51, 52, 53); animation-play-state: running; animation-delay: 0s;"></path></g></g><g class="ldl-layer" style="animation-play-state: running; animation-delay: 0s;"><g class="ldl-ani" style="transform-origin: 50px 50px; opacity: 1; animation: 3.7037s linear -3.7037s infinite normal forwards running fade-001308ec-7634-4ac0-9652-e7f5a0e829a0;"><path d="M77.65,50.34c-8.54,2.77-18.96-3.3-18.96-3.3S63.55,36,72.09,33.22c6.21-2.02,11.5-1.5,14.91,0.63c-0.02-0.06-2.42,4.78-2.42,4.78 s4.79,2.5,4.77,2.44C87.84,44.79,83.86,48.32,77.65,50.34z" stroke-miterlimit="10" stroke-linejoin="round" stroke-linecap="round" stroke-width="3.5" stroke="#333435" fill="#F8AFB4" style="fill: rgb(243, 177, 188); stroke: rgb(51, 52, 53); animation-play-state: running; animation-delay: 0s;"></path></g></g><metadata xmlnsd="https://loading.io/stock/" style="animation-play-state: running; animation-delay: 0s;">
</metadata></g></g><style id="fade-001308ec-7634-4ac0-9652-e7f5a0e829a0" data-anikit="">@keyframes fade-001308ec-7634-4ac0-9652-e7f5a0e829a0
{
  0% {
    animation-timing-function: cubic-bezier(0.2057,0.573,0.3723,0.9184);
    opacity: 1;
  }
  100% {
    opacity: 0;
  }
}</style><!-- [ldio] generated by https://loading.io/ --></svg>