<?xml version="1.0" encoding="utf-8"?>
<svg style="width: 100%; height: 100%; background: none; animation-play-state: paused; shape-rendering: auto;" height="200px" width="200px" version="1.1" id="Layer_1" xmlns="http://www.w3.org/2000/svg" x="0px" y="0px" viewBox="0 0 100 100"><g style="transform-origin:50% 50%;transform:rotate(0deg) scale(0.8, 0.8);animation-play-state:paused" class="ldl-scale"><g class="ldl-ani" style="transform-origin: 50px 50px; transform: matrix(1, 0, 0, 1, 0, -14.925); opacity: 0.05; animation: 4s linear 0s 1 normal forwards running float-ttb-in-e3bab2d5-0fc1-45b8-825c-a01a783795f1;"><g class="ldl-layer"><g class="ldl-ani"><g style="animation-play-state:paused"><g class="ldl-layer"><g class="ldl-ani"><path style="stroke: rgba(255, 255, 255, 0); fill: rgb(252, 182, 209); animation-play-state: paused;" fill="#F8AFB4" stroke="#333435" stroke-width="3.5" stroke-linecap="round" stroke-linejoin="round" stroke-miterlimit="10" d="M62.05,24.79C62.05,34.93,50,44,50,44s-12.05-9.07-12.05-19.21c0-7.37,2.85-12.88,6.97-15.79C44.84,9,50,13.27,50,13.27 S55.16,9,55.08,9C59.2,11.92,62.05,17.42,62.05,24.79z"></path></g></g>
<g class="ldl-layer"><g class="ldl-ani"><line style="stroke: rgba(255, 255, 255, 0); animation-play-state: paused;" fill="none" stroke="#333435" stroke-width="3.5" stroke-linecap="round" stroke-linejoin="round" stroke-miterlimit="10" x1="50" y1="38" x2="50" y2="26"></line></g></g></g></g></g>
<g class="ldl-layer"><g class="ldl-ani"><g style="animation-play-state:paused"><g class="ldl-layer"><g class="ldl-ani"><path style="stroke: rgba(255, 255, 255, 0); fill: rgb(252, 182, 209); animation-play-state: paused;" fill="#F8AFB4" stroke="#333435" stroke-width="3.5" stroke-linecap="round" stroke-linejoin="round" stroke-miterlimit="10" d="M29.88,29.93c9.64,3.13,14.54,17.39,14.54,17.39s-12.35,8.66-21.99,5.52c-7.01-2.28-11.36-6.69-12.87-11.51 c-0.02,0.08,5.63-3.51,5.63-3.51s-2.46-6.23-2.49-6.15C16.75,28.67,22.87,27.65,29.88,29.93z"></path></g></g>
<g class="ldl-layer"><g class="ldl-ani"><line style="stroke: rgba(255, 255, 255, 0); animation-play-state: paused;" fill="none" stroke="#333435" stroke-width="3.5" stroke-linecap="round" stroke-linejoin="round" stroke-miterlimit="10" x1="38.59" y1="46.29" x2="27.17" y2="42.58"></line></g></g></g></g></g>
<g class="ldl-layer"><g class="ldl-ani"><g style="animation-play-state:paused"><g class="ldl-layer"><g class="ldl-ani"><path style="stroke: rgba(255, 255, 255, 0); fill: rgb(252, 182, 209); animation-play-state: paused;" fill="#F8AFB4" stroke="#333435" stroke-width="3.5" stroke-linecap="round" stroke-linejoin="round" stroke-miterlimit="10" d="M24.83,62.11c5.96-8.2,21.04-8.46,21.04-8.46s4.42,14.42-1.54,22.62c-4.33,5.96-9.88,8.74-14.92,8.68c0.07,0.05-1.6-6.44-1.6-6.44 s-6.69,0.42-6.62,0.47C19.57,74.21,20.49,68.08,24.83,62.11z"></path></g></g>
<g class="ldl-layer"><g class="ldl-ani"><line style="stroke: rgba(255, 255, 255, 0); animation-play-state: paused;" fill="none" stroke="#333435" stroke-width="3.5" stroke-linecap="round" stroke-linejoin="round" stroke-miterlimit="10" x1="42.95" y1="59.71" x2="35.89" y2="69.42"></line></g></g></g></g></g>
<g class="ldl-layer"><g class="ldl-ani"><g style="animation-play-state:paused"><g class="ldl-layer"><g class="ldl-ani"><path style="stroke: rgba(255, 255, 255, 0); fill: rgb(252, 182, 209); animation-play-state: paused;" fill="#F8AFB4" stroke="#333435" stroke-width="3.5" stroke-linecap="round" stroke-linejoin="round" stroke-miterlimit="10" d="M53.87,76.86c-5.96-8.2-1.54-22.62-1.54-22.62s15.08,0.26,21.04,8.46c4.33,5.96,5.26,12.09,3.65,16.88 c0.07-0.05-6.62-0.47-6.62-0.47s-1.67,6.49-1.6,6.44C63.75,85.6,58.2,82.83,53.87,76.86z"></path></g></g>
<g class="ldl-layer"><g class="ldl-ani"><line style="stroke: rgba(255, 255, 255, 0); animation-play-state: paused;" fill="none" stroke="#333435" stroke-width="3.5" stroke-linecap="round" stroke-linejoin="round" stroke-miterlimit="10" x1="57.05" y1="59.71" x2="64.11" y2="69.42"></line></g></g></g></g></g>
<g class="ldl-layer"><g class="ldl-ani"><g style="animation-play-state:paused"><g class="ldl-layer"><g class="ldl-ani"><path style="stroke: rgba(255, 255, 255, 0); fill: rgb(252, 182, 209); animation-play-state: paused;" fill="#F8AFB4" stroke="#333435" stroke-width="3.5" stroke-linecap="round" stroke-linejoin="round" stroke-miterlimit="10" d="M76.88,53.8c-9.64,3.13-21.99-5.52-21.99-5.52s4.9-14.26,14.54-17.39c7.01-2.28,13.13-1.26,17.18,1.75 c-0.03-0.08-2.49,6.15-2.49,6.15s5.66,3.59,5.63,3.51C88.24,47.11,83.89,51.52,76.88,53.8z"></path></g></g>
<g class="ldl-layer"><g class="ldl-ani"><line style="stroke: rgba(255, 255, 255, 0); animation-play-state: paused;" fill="none" stroke="#333435" stroke-width="3.5" stroke-linecap="round" stroke-linejoin="round" stroke-miterlimit="10" x1="61.41" y1="46.29" x2="72.83" y2="42.58"></line></g></g></g></g></g>
<g class="ldl-layer"><g class="ldl-ani"><circle style="stroke: rgba(255, 255, 255, 0); fill: rgba(255, 255, 255, 0); animation-play-state: paused;" fill="#FFFFFF" stroke="#333435" stroke-width="3.5" stroke-linecap="round" stroke-linejoin="round" stroke-miterlimit="10" cx="50" cy="50" r="12"></circle></g></g>
<metadata style="animation-play-state:paused">sakura


sakura,flower,petal,cherry blossom,bloom,plum,peach


by


4upd0i</metadata></g></g><style id="float-ttb-in-e3bab2d5-0fc1-45b8-825c-a01a783795f1" data-anikit="">@keyframes float-ttb-in-e3bab2d5-0fc1-45b8-825c-a01a783795f1
{
  0% {
    animation-timing-function: cubic-bezier(0.2242,0.7499,0.3142,0.8148);
    transform: translate(0px,-14.925px) rotate(0deg) scale(1,1) skewX(0deg) skewY(0deg);
    opacity: 0.05;
  }
  100% {
    transform: translate(0px,0px) rotate(0deg) scale(1,1) skewX(0deg) skewY(0deg);
    opacity: 1;
  }
}</style><!-- [ldio] generated by https://loading.io/ --></svg>